<svg width="24" height="24" viewBox="0 0 24 24" fill="none" xmlns="http://www.w3.org/2000/svg">
<rect width="24" height="24" fill="#CB2233"/>
<path fill-rule="evenodd" clip-rule="evenodd" d="M8.08365 11.943L8.08609 11.9401C8.17397 11.8344 8.88333 10.9818 8.88333 10.1472C8.88333 8.68127 7.64574 7.875 6.12254 7.875C4.21855 7.89332 3.3808 9.01111 3.3808 10.1472C3.3808 10.8252 3.68544 11.2833 4.12335 11.6498C3.87584 11.833 3 12.5477 3 13.5739C3 14.8199 4.04719 16.011 6.02734 16.011C8.04557 16.011 9.05469 14.8199 9.05469 13.6105C9.05469 12.8226 8.63581 12.3095 8.08365 11.943ZM14.5047 10.7131H12.5797L12.1354 11.5414C12.0799 11.6702 11.9689 11.8175 11.9689 11.8175H11.9503C11.9503 11.8175 11.8578 11.6702 11.7838 11.5414L11.358 10.7131H9.43304L10.9508 13.069L9.45155 15.4434H11.3395L11.8578 14.4679C11.9133 14.3758 11.9874 14.2102 11.9874 14.2102H12.0059C12.0059 14.2102 12.0799 14.3758 12.1354 14.4679L12.6537 15.4434H14.5417L13.0424 13.069L14.5047 10.7131ZM6.78418 10.3103C6.78418 9.87085 6.47784 9.57788 5.97328 9.57788C5.48675 9.57788 5.27051 9.85254 5.27051 10.2004C5.27051 10.7131 5.82912 10.9878 6.51388 11.2808C6.58596 11.1526 6.78418 10.7864 6.78418 10.3103ZM20.193 11.9614L20.1954 11.9585C20.2833 11.8524 20.9926 10.9959 20.9926 10.1575C20.9926 8.68492 19.7551 7.875 18.2319 7.875C16.3279 7.875 15.4901 8.99784 15.4901 10.1391C15.4901 10.8202 15.7948 11.2803 16.2327 11.6485C15.9851 11.8325 15.1093 12.5504 15.1093 13.5628C15.1093 14.8145 16.1565 16.011 18.1367 16.011C20.1549 16.011 21.164 14.8145 21.164 13.5996C21.164 12.8449 20.7451 12.3295 20.193 11.9614ZM5.08136 13.3806C5.08136 13.9 5.50387 14.3081 6.03659 14.3081C6.62442 14.3081 6.97345 14.0299 6.97345 13.4919C6.97345 13.0815 6.38024 12.813 5.6831 12.4974L5.68309 12.4974C5.624 12.4706 5.56416 12.4436 5.50387 12.416C5.32017 12.6201 5.08136 12.954 5.08136 13.3806ZM18.1459 14.3081C17.6132 14.3081 17.1907 13.9 17.1907 13.3806C17.1907 12.954 17.4295 12.6201 17.6132 12.416C17.6735 12.4436 17.7333 12.4706 17.7924 12.4974C18.4895 12.813 19.0828 13.0815 19.0828 13.4919C19.0828 14.0299 18.7337 14.3081 18.1459 14.3081ZM18.8935 10.3103C18.8935 9.87085 18.5872 9.57788 18.0826 9.57788C17.5961 9.57788 17.3798 9.85254 17.3798 10.2004C17.3798 10.7131 17.9384 10.9878 18.6232 11.2808C18.6953 11.1526 18.8935 10.7864 18.8935 10.3103Z" fill="white"/>
</svg>
