<svg width="16" height="16" viewBox="0 0 16 16" fill="none" xmlns="http://www.w3.org/2000/svg">
<path d="M15.1161 0.000976562H0.883078C0.395699 0.000976562 0 0.395885 0 0.884055V15.1171C0 15.6053 0.395699 16.0007 0.883078 16.0007H8.54573V9.80468H6.4608V7.38965H8.54573V5.60874C8.54573 3.54251 9.80739 2.4168 11.651 2.4168C12.5349 2.4168 13.2928 2.48292 13.5138 2.51164V4.67139L12.2351 4.67191C11.2326 4.67191 11.0393 5.14849 11.0393 5.84742V7.38885H13.4309L13.1181 9.80362H11.039V15.9999H15.1159C15.6038 15.9999 15.9997 15.604 15.9997 15.1171V0.883528C15.9995 0.395885 15.604 0.000976562 15.1161 0.000976562Z" fill="white"/>
</svg>
