<svg width="17" height="16" viewBox="0 0 17 16" fill="none" xmlns="http://www.w3.org/2000/svg">
<path fill-rule="evenodd" clip-rule="evenodd" d="M8.1951 0.0301564C6.24962 0.0281791 4.36703 0.719084 2.88468 1.97906C1.40234 3.23904 0.417131 4.98573 0.105636 6.90611C-0.205859 8.82649 0.176714 10.795 1.18479 12.459C2.19286 14.1229 3.76055 15.3735 5.6069 15.9865C6.01398 16.0619 6.16475 15.8056 6.16475 15.5895C6.16475 15.3734 6.16475 14.8809 6.16475 14.1974C3.88814 14.7 3.40567 13.1018 3.40567 13.1018C3.25397 12.6065 2.93169 12.181 2.49603 11.9007C1.75726 11.3981 2.55634 11.3981 2.55634 11.3981C2.81531 11.4347 3.06256 11.5297 3.27936 11.676C3.49617 11.8223 3.67686 12.016 3.80772 12.2424C3.91892 12.4441 4.06883 12.6218 4.24887 12.7653C4.42891 12.9088 4.63552 13.0154 4.85684 13.0789C5.07817 13.1424 5.30986 13.1616 5.53861 13.1354C5.76737 13.1091 5.98869 13.0379 6.18987 12.9259C6.22141 12.5125 6.39965 12.1239 6.69243 11.8303C4.87315 11.6243 2.96341 10.9207 2.96341 7.78471C2.95092 6.97206 3.25142 6.18572 3.80269 5.58851C3.55667 4.88199 3.58538 4.10879 3.88311 3.42246C3.88311 3.42246 4.57162 3.20133 6.13459 4.26174C7.47673 3.89324 8.89337 3.89324 10.2355 4.26174C11.7985 3.20133 12.482 3.42246 12.482 3.42246C12.7828 4.10781 12.8133 4.88159 12.5674 5.58851C13.1187 6.18572 13.4192 6.97206 13.4067 7.78471C13.4067 10.9308 11.4919 11.6193 9.66761 11.8052C9.86322 12.0019 10.0143 12.2383 10.1105 12.4984C10.2068 12.7585 10.246 13.0363 10.2255 13.3129C10.2255 14.4085 10.2255 15.293 10.2255 15.5594C10.2255 15.8257 10.3712 16.0318 10.7883 15.9564C12.6289 15.3375 14.1897 14.085 15.1925 12.4222C16.1953 10.7593 16.5748 8.79434 16.2633 6.87768C15.9518 4.96103 14.9696 3.21735 13.4918 1.95765C12.0141 0.697949 10.1369 0.0041503 8.1951 0V0.0301564Z" fill="white"/>
</svg>
