<svg width="88" height="40" viewBox="0 0 88 40" fill="none" xmlns="http://www.w3.org/2000/svg">
<path d="M26.1817 14.3704C25.8597 13.6807 25.3405 13.102 24.6897 12.7072C23.9161 12.2168 22.9497 12.1128 22.2761 12.1128C22.0493 12.1129 21.8226 12.1246 21.5969 12.148H21.5801C21.5921 12.0552 21.6161 11.9352 21.6361 11.8376C21.6697 11.6664 21.7081 11.472 21.7297 11.2696C21.8193 10.4016 21.5105 9.23361 20.9417 8.29521C20.8513 8.14561 20.8545 8.09441 20.8545 8.09441C20.883 8.05202 20.9163 8.01309 20.9537 7.97841L21.0057 7.92401C22.3505 6.48401 22.7569 4.90081 22.2121 3.20881C21.1793 1.5564e-05 20.9025 1.55531e-05 20.7001 1.55531e-05C20.655 -0.000429417 20.6103 0.00867809 20.5689 0.02674C20.5275 0.0448019 20.4905 0.0714095 20.4601 0.104816C20.4265 0.145501 20.402 0.192853 20.388 0.243741C20.3741 0.29463 20.3711 0.347895 20.3793 0.400015C20.4841 1.46402 20.2441 2.98721 20.0841 3.56721C19.8881 4.29681 19.2041 5.38481 17.0441 6.41921C16.8924 6.48383 16.7376 6.54071 16.5801 6.58961C15.8753 6.82561 14.6977 7.22001 14.0433 8.12081C13.5497 8.69921 13.4305 9.27841 13.2169 10.324C13.0265 11.2536 12.8729 12.3856 13.1737 13.7368C13.2041 13.8704 13.2329 13.9824 13.2593 14.0824C13.2777 14.1536 13.2937 14.2152 13.3057 14.2688L13.3313 14.2632L13.3049 14.2704C13.3249 14.3504 13.3121 14.3696 13.2833 14.3896C13.1794 14.4307 13.0724 14.4636 12.9633 14.488C12.6433 14.5392 12.3233 14.596 12.0177 14.656C11.0449 14.8232 8.10412 15.3304 6.74972 17.4864C5.91372 18.816 5.79532 20.5528 6.39612 22.6544C7.01932 24.7344 8.25612 26.164 9.10252 26.4552L9.11612 26.46C9.17692 26.4872 9.23532 26.5104 9.29212 26.5296C9.29212 26.588 9.28652 26.6592 9.27932 26.7392C9.27345 26.7744 9.26785 26.8128 9.26252 26.8544C9.16972 27.5328 8.84972 28.264 8.52332 28.2832C8.35132 28.2496 7.66972 27.8632 7.18732 27.5464C7.03265 27.4456 6.88599 27.3491 6.74732 27.2568C5.40092 26.3656 4.65852 25.8752 3.52412 25.7488C3.48532 25.7447 3.44634 25.7425 3.40732 25.7424C2.20732 25.7424 0.0473226 27.7632 0.00172267 31.7904C-0.0214773 33.808 0.189723 35.652 0.631322 37.272C0.946522 38.4336 1.28252 39.0952 1.38012 39.272L1.76892 40L1.94652 39.2C2.88252 34.96 4.03772 33.9384 5.96012 32.716C7.36892 34.036 9.21932 34.732 11.3265 34.732C13.1025 34.732 14.9609 34.216 16.5577 33.2784C18.1265 32.3584 19.3377 31.1184 20.0777 29.6856C20.2009 29.7656 20.3497 29.8696 20.4481 29.9384C20.8001 30.1848 20.8745 30.2368 21.0001 30.2368H21.0113C21.1489 30.2312 22.4465 29.796 23.7753 28.1728C24.5473 27.2296 25.1841 26.0632 25.6673 24.704C26.2657 23.024 26.6273 21.04 26.7505 18.8088C26.8865 16.9352 26.6961 15.4432 26.1849 14.3744L26.1817 14.3704ZM21.2041 3.58561C21.3157 4.03554 21.3301 4.50407 21.2465 4.96001C21.1217 5.84641 20.7457 6.64001 20.1041 7.36401C20.6509 6.16411 21.0214 4.89149 21.2041 3.58561ZM20.2761 9.08721C20.4715 9.38285 20.6207 9.70657 20.7185 10.0472C20.827 10.4939 20.8076 10.9622 20.6625 11.3984C20.4329 11.9448 20.1249 12.2208 19.7465 12.2208H19.6961C19.5628 12.2008 19.4349 12.154 19.3201 12.0832C18.8337 11.7984 18.5705 11.0432 18.7601 10.4896C18.7681 10.4736 18.7753 10.4568 18.7825 10.4392C18.8137 10.3592 18.9025 10.2056 19.1489 9.96801C19.5009 9.65681 20.0153 9.26401 20.2745 9.08801L20.2761 9.08721ZM14.6441 8.93681L14.6489 8.92801V8.92001C14.7529 8.66401 15.4689 8.24961 15.9441 7.97521C16.0033 7.94001 16.0625 7.90561 16.1217 7.87201C16.3299 7.76274 16.5435 7.66421 16.7617 7.57681C17.5433 7.24401 18.7617 6.72561 19.7649 5.76001C19.4737 6.78081 18.7729 8.50001 17.6209 9.54081C17.3649 9.77201 16.8481 9.97681 16.2489 10.2136C15.6033 10.468 14.8273 10.7736 14.0745 11.2352C14.1329 10.6464 14.3145 9.61921 14.6401 8.93681H14.6441ZM14.1441 12.2632C14.5313 11.9432 15.2401 11.5096 17.5625 10.7432C17.5785 10.8152 17.5969 10.908 17.6145 11C17.6289 11.0696 17.6441 11.1488 17.6617 11.2352C17.8137 11.9856 17.9817 12.8288 19.5441 13.2968C19.3985 13.6168 19.0993 14.1576 18.9953 14.2608L18.9609 14.2904L18.9369 14.3296C18.6329 14.8176 16.9897 15.8824 16.2537 15.8824C16.2221 15.8827 16.1905 15.8803 16.1593 15.8752C15.7161 15.7896 14.6985 14.8856 14.3993 14.2176C13.8209 12.9064 13.9393 12.4336 14.1401 12.2664L14.1441 12.2632ZM8.35772 24.2984C7.50652 23.032 6.86172 20.8192 7.28412 19.04V19.032C7.48812 18.064 8.16412 17.4944 8.44332 17.2944L8.48332 17.2648C8.89772 16.9032 9.74572 16.5216 10.8721 16.188C11.0321 16.1464 11.1201 16.128 11.1241 16.128C11.3313 16.0848 11.5577 16.0328 11.7777 15.9824C12.194 15.8761 12.616 15.7936 13.0417 15.7352C13.1473 15.724 13.2545 15.704 13.3569 15.684C13.4953 15.6536 13.6361 15.6354 13.7777 15.6296C13.8906 15.6236 14.0026 15.6532 14.0977 15.7144C14.5153 16.2104 15.5377 17.1896 16.2081 17.2472H16.2281H16.2505C17.0137 17.2064 18.2097 16.4616 19.8065 15.032C20.0777 14.792 20.3297 14.5824 20.5769 14.3992L20.6073 14.376C21.043 14.0455 21.5229 13.7775 22.0329 13.58C21.8657 14.1272 21.7329 15.0624 22.2729 16.38C22.5537 17.0616 23.0929 18.5976 23.5401 20.1016C24.3097 22.692 24.2025 23.148 24.1873 23.1904C24.166 23.2784 24.1312 23.3626 24.0841 23.44C24.0241 23.4284 23.9661 23.4079 23.9121 23.3792C23.5241 23.2 23.0889 22.88 22.5801 22.504C21.6361 21.812 20.4625 20.9512 18.7449 20.28C17.4833 19.788 16.2289 19.5376 15.0185 19.5376C14.517 19.5368 14.0165 19.5844 13.5241 19.68C10.8185 20.2136 9.39212 21.4064 8.62652 22.048L8.62092 22.0528C8.5706 22.0936 8.53412 22.1489 8.5165 22.2112C8.49889 22.2735 8.50099 22.3397 8.52252 22.4008C8.54457 22.4609 8.58474 22.5126 8.63748 22.5489C8.69022 22.5852 8.75292 22.6041 8.81692 22.6032C8.88652 22.6032 8.95452 22.584 9.17932 22.5192C9.99002 22.2776 10.8196 22.1048 11.6593 22.0024C11.9602 21.9673 12.2628 21.9494 12.5657 21.9488C13.8753 21.9488 15.0801 22.3488 16.3553 23.2152C16.6473 23.4592 16.8257 23.6208 16.9337 23.7272L16.8233 23.756L16.0497 23.9744C14.1345 24.516 11.2393 25.3344 9.86892 25.3344C9.76383 25.3352 9.6588 25.3291 9.55452 25.316C9.19932 25.264 8.76572 24.8928 8.36332 24.2992L8.35772 24.2984ZM2.70892 34.0144C2.16986 34.7172 1.77287 35.5182 1.54012 36.3728C1.28252 35.1384 0.980122 33.108 1.15212 31.5272C1.51052 28.252 3.13292 27.1552 3.37372 27.0976H3.38892C3.40252 27.0976 3.41852 27.0976 3.45052 27.132C3.58012 27.2728 3.86012 27.8672 3.65612 30.3256C3.60812 30.832 3.72972 31.2608 4.01932 31.6C4.21552 31.8244 4.46233 31.9988 4.73932 32.1088C3.95843 32.6246 3.27079 33.2692 2.70572 34.0152L2.70892 34.0144ZM5.46652 30.8C5.38203 30.8378 5.29104 30.859 5.19852 30.8624C5.16601 30.8653 5.13327 30.8607 5.10278 30.8491C5.07228 30.8374 5.04484 30.819 5.02252 30.7952C4.97052 30.7408 4.85292 30.5552 4.89052 30.0072C4.91692 29.7376 4.95452 29.4688 4.98972 29.2072C5.06828 28.7144 5.11531 28.2172 5.13052 27.7184C6.07612 28.3376 7.12412 28.9936 7.80252 29.296C7.35932 29.6888 6.43692 30.3952 5.46652 30.8016V30.8ZM17.8065 30.712C16.2811 32.3021 14.2209 33.271 12.0233 33.432C11.7625 33.4512 11.5025 33.4608 11.2521 33.4608C8.35852 33.4608 6.88812 32.2328 6.21212 31.5488C9.48172 30.1384 10.1449 28.1216 10.4345 27.2408C10.4625 27.1552 10.4881 27.0808 10.5145 27.0168C10.6393 26.9544 11.0361 26.7768 12.2601 26.3184C13.2201 25.9728 14.3713 25.5856 15.3865 25.2432C16.2321 24.9584 16.9625 24.7112 17.3617 24.5648L17.3945 24.5544C17.4745 24.532 17.5225 24.5216 17.5545 24.516L17.5769 24.5448C17.9489 25.0296 18.5625 25.3248 18.5681 25.3288C19.0294 25.5347 19.5228 25.6592 20.0265 25.6968C20.0145 27.4448 19.2161 29.2576 17.8113 30.7112L17.8065 30.712ZM20.3425 24.7272C19.1321 24.7272 18.7073 24.3376 18.3113 23.8664C16.3457 21.5232 14.1729 21.1392 13.3289 21.0824C13.0585 21.0648 12.7937 21.056 12.5401 21.056C12.3273 21.056 12.1193 21.0616 11.9161 21.0744C12.8952 20.7415 13.922 20.5707 14.9561 20.5688C17.1241 20.5688 19.2113 21.3368 21.1577 22.8504C21.9513 23.4672 22.5353 23.9048 23.0401 24.256C22.7942 24.3291 22.4622 24.4224 22.0441 24.536L21.8841 24.58C21.3758 24.6703 20.8611 24.7196 20.3449 24.7272H20.3425ZM21.0969 29.1584C20.9697 29.0464 20.7769 28.868 20.5777 28.6864C20.7608 28.2206 20.899 27.7384 20.9905 27.2464C21.0849 26.7272 21.1441 26.0464 21.1713 25.6856C21.7462 25.5997 22.3152 25.4787 22.8753 25.3232C23.5497 25.1296 24.0705 24.9096 24.4417 24.6592C23.2841 27.5496 21.6073 28.8192 21.0969 29.1568V29.1584ZM25.1025 22.548C24.9305 21.1232 24.3537 19.3616 24.1281 18.6768C24.1041 18.5968 24.0841 18.5392 24.0705 18.4968C24.0537 18.4424 24.0017 18.2976 23.8945 18.0016C23.6169 17.2264 23.0377 15.6152 22.9345 15.1384C22.7865 14.4376 23.1209 13.4736 23.3345 13.3896C23.4005 13.3649 23.4704 13.3521 23.5409 13.352C23.9345 13.352 24.4209 13.724 24.8057 14.324C25.2713 15.044 25.5473 15.9984 25.5833 17.0032C25.6633 19.196 25.4601 21.028 25.1033 22.548" fill="white"/>
<path d="M37.8721 9.58802V32.892C37.8721 34.8168 37.4102 36.2859 36.4865 37.2992C35.5627 38.3125 34.2027 38.8192 32.4065 38.8192C31.7168 38.8196 31.0325 38.6972 30.3857 38.4576L30.4241 36.568C30.9864 36.734 31.5698 36.8181 32.1561 36.8176C34.4393 36.8176 35.5811 35.5019 35.5817 32.8704V9.59042L37.8721 9.58802ZM36.7369 2.02482C37.2377 2.02482 37.6291 2.17469 37.9113 2.47442C38.192 2.77055 38.3441 3.16571 38.3345 3.57362C38.3398 3.77435 38.3051 3.97413 38.2324 4.16133C38.1597 4.34852 38.0506 4.5194 37.9113 4.66402C37.6291 4.95789 37.2377 5.10429 36.7369 5.10322C36.2489 5.10322 35.8673 4.95682 35.5921 4.66402C35.3157 4.36939 35.167 3.97743 35.1785 3.57362C35.168 3.16735 35.3164 2.773 35.5921 2.47442C35.8678 2.17469 36.2494 2.02482 36.7369 2.02482Z" fill="white"/>
<path d="M44.2441 3.57362C44.2341 3.16563 44.3863 2.77032 44.6673 2.47442C44.9489 2.17469 45.3337 2.02482 45.8217 2.02482C46.3097 2.02482 46.698 2.17469 46.9865 2.47442C47.1281 2.61967 47.2393 2.79169 47.3137 2.98043C47.388 3.16917 47.4239 3.37083 47.4193 3.57362C47.4244 3.77516 47.3887 3.97564 47.3143 4.16302C47.2399 4.3504 47.1284 4.52081 46.9865 4.66402C46.698 4.95789 46.3097 5.10456 45.8217 5.10402C45.3337 5.10349 44.9489 4.95682 44.6673 4.66402C44.5279 4.51951 44.4186 4.34865 44.346 4.16143C44.2733 3.9742 44.2387 3.77438 44.2441 3.57362ZM46.9569 30.4096H44.6441V9.58802H46.9529L46.9569 30.4096Z" fill="white"/>
<path d="M56.7897 4.25681V9.58801H61.1001V11.4736H56.7897V25.364C56.7897 26.5203 56.9982 27.3808 57.4153 27.9456C57.8324 28.5104 58.5284 28.7931 59.5033 28.7936C59.8878 28.7936 60.51 28.7293 61.3697 28.6008L61.4657 30.4704C60.8625 30.6837 60.0414 30.7917 59.0025 30.7944C57.4249 30.7944 56.2766 30.3357 55.5577 29.4184C54.8388 28.5011 54.4809 27.1509 54.4841 25.368V11.4736H50.6505V9.58801H54.4841V4.25681H56.7897Z" fill="white"/>
<path d="M77.5545 25.12C77.5545 23.9781 77.0961 23.0608 76.1793 22.368C75.2625 21.6752 73.8801 21.1331 72.0321 20.7416C70.1841 20.3501 68.7502 19.9013 67.7305 19.3952C66.7107 18.8891 65.9539 18.2691 65.4601 17.5352C64.9657 16.804 64.7187 15.919 64.7193 14.88C64.7193 13.2374 65.4057 11.8806 66.7785 10.8096C68.1513 9.73869 69.9089 9.20215 72.0513 9.20002C74.3729 9.20002 76.2363 9.77415 77.6417 10.9224C79.047 12.0707 79.7494 13.5686 79.7489 15.416H77.4393C77.4393 14.1979 76.9294 13.1846 75.9097 12.376C74.8899 11.5675 73.6038 11.1635 72.0513 11.164C70.5366 11.164 69.3209 11.5008 68.4041 12.1744C67.4873 12.848 67.0286 13.7232 67.0281 14.8C67.0281 15.8395 67.4097 16.6446 68.1729 17.2152C68.9361 17.7859 70.3281 18.3088 72.3489 18.784C74.3697 19.2581 75.8838 19.7648 76.8913 20.304C77.8987 20.8432 78.6454 21.4912 79.1313 22.248C79.6187 23.0048 79.8625 23.9221 79.8625 25C79.8625 26.76 79.1537 28.1648 77.7361 29.2144C76.3185 30.264 74.4678 30.7899 72.1841 30.792C69.7595 30.792 67.7934 30.2053 66.2857 29.032C64.7779 27.8587 64.0243 26.3736 64.0249 24.5768H66.3337C66.4233 25.924 66.991 26.9731 68.0369 27.724C69.0827 28.4749 70.4651 28.8501 72.1841 28.8496C73.7883 28.8496 75.0841 28.4968 76.0713 27.7912C77.0585 27.0856 77.5529 26.1952 77.5545 25.12Z" fill="white"/>
<path d="M84.5121 3.57362C84.502 3.16563 84.6542 2.77032 84.9353 2.47442C85.2175 2.17469 85.6025 2.02482 86.0905 2.02482C86.5785 2.02482 86.9665 2.17469 87.2545 2.47442C87.3958 2.61975 87.5066 2.79186 87.5804 2.98063C87.6541 3.1694 87.6894 3.37102 87.6841 3.57362C87.6894 3.77518 87.6537 3.97571 87.5793 4.16312C87.5049 4.35052 87.3934 4.52092 87.2513 4.66402C86.9623 4.95789 86.5743 5.10456 86.0873 5.10402C85.6004 5.10349 85.2153 4.95682 84.9321 4.66402C84.7927 4.51951 84.6834 4.34865 84.6107 4.16143C84.5381 3.9742 84.5035 3.77438 84.5089 3.57362H84.5121ZM87.2225 30.4096H84.9161V9.58802H87.2257L87.2225 30.4096Z" fill="white"/>
</svg>
