<svg width="16" height="16" viewBox="0 0 16 16" fill="none" xmlns="http://www.w3.org/2000/svg">
<path d="M14.8185 0H1.18231C0.529354 0 0.00012207 0.513087 0.00012207 1.14636V14.8532C0.00012207 15.4865 0.52954 16 1.18231 16H14.8185C15.4713 16 15.9999 15.4861 15.9999 14.8532V1.14636C15.9999 0.513273 15.4713 0 14.8185 0ZM4.85081 13.3931H2.43335V6.16928H4.85081V13.3931ZM3.64232 5.18239H3.62607C2.81539 5.18239 2.28988 4.62798 2.28988 3.93388C2.28988 3.22579 2.83082 2.68641 3.65757 2.68641C4.4844 2.68641 4.99298 3.22565 5.00905 3.93388C5.00905 4.62813 4.48458 5.18239 3.64232 5.18239ZM13.565 13.3931H11.1484V9.5281C11.1484 8.55694 10.7982 7.89428 9.92424 7.89428C9.25567 7.89428 8.85879 8.34134 8.68451 8.77296C8.61993 8.92711 8.60394 9.14272 8.60394 9.35803V13.3929H6.18771C6.18771 13.3929 6.21933 6.84668 6.18771 6.16917H8.60431V7.1933C8.92511 6.70119 9.49839 5.99921 10.7817 5.99921C12.3724 5.99921 13.565 7.03108 13.565 9.25093V13.3931ZM8.58869 7.21625C8.59282 7.20948 8.59858 7.20134 8.60431 7.19341V7.21625H8.58869Z" fill="white"/>
</svg>
