<svg width="16" height="14" viewBox="0 0 16 14" fill="none" xmlns="http://www.w3.org/2000/svg">
<path d="M16 2.03941C15.4111 2.30035 14.7793 2.47732 14.1154 2.55633C14.7933 2.15039 15.3122 1.50652 15.5581 0.741657C14.9222 1.11758 14.2203 1.39055 13.4725 1.53852C12.8736 0.899644 12.0218 0.501709 11.0769 0.501709C9.26427 0.501709 7.79455 1.97144 7.79455 3.7831C7.79455 4.04004 7.82354 4.291 7.87954 4.53097C5.15206 4.39398 2.73353 3.08723 1.11483 1.10158C0.831878 1.5855 0.670911 2.14937 0.670911 2.75128C0.670911 3.89008 1.25081 4.89489 2.13065 5.48276C1.59274 5.46478 1.08683 5.3168 0.64393 5.07084V5.11183C0.64393 6.70154 1.77572 8.02828 3.27643 8.33024C3.00147 8.40423 2.71154 8.44522 2.41159 8.44522C2.19964 8.44522 1.99468 8.42423 1.79371 8.38423C2.21162 9.68899 3.42341 10.6378 4.85915 10.6638C3.73635 11.5437 2.32061 12.0666 0.782911 12.0666C0.51797 12.0666 0.257002 12.0506 6.10352e-05 12.0216C1.45279 12.9544 3.17747 13.4983 5.03112 13.4983C11.069 13.4983 14.3694 8.49722 14.3694 4.16004L14.3584 3.73513C15.0032 3.27518 15.5611 2.69729 16 2.03941Z" fill="white"/>
</svg>
